<?xml version="1.0" encoding="UTF-8" standalone="no"?>
<!-- Created with Inkscape (http://www.inkscape.org/) -->

<svg
   xmlns:dc="http://purl.org/dc/elements/1.1/"
   xmlns:cc="http://creativecommons.org/ns#"
   xmlns:rdf="http://www.w3.org/1999/02/22-rdf-syntax-ns#"
   xmlns:svg="http://www.w3.org/2000/svg"
   xmlns="http://www.w3.org/2000/svg"
   xmlns:sodipodi="http://sodipodi.sourceforge.net/DTD/sodipodi-0.dtd"
   xmlns:inkscape="http://www.inkscape.org/namespaces/inkscape"
   version="1.1"
   id="svg3331"
   width="1600"
   height="1600"
   viewBox="0 0 1600 1600"
   sodipodi:docname="bi.svg"
   inkscape:version="0.92.3 (2405546, 2018-03-11)">
  <metadata
     id="metadata3337">
    <rdf:RDF>
      <cc:Work
         rdf:about="">
        <dc:format>image/svg+xml</dc:format>
        <dc:type
           rdf:resource="http://purl.org/dc/dcmitype/StillImage" />
        <dc:title></dc:title>
      </cc:Work>
    </rdf:RDF>
  </metadata>
  <defs
     id="defs3335" />
  <sodipodi:namedview
     pagecolor="#ffffff"
     bordercolor="#666666"
     borderopacity="1"
     objecttolerance="10"
     gridtolerance="10"
     guidetolerance="10"
     inkscape:pageopacity="0"
     inkscape:pageshadow="2"
     inkscape:window-width="1366"
     inkscape:window-height="705"
     id="namedview3333"
     showgrid="false"
     inkscape:zoom="0.1475"
     inkscape:cx="800"
     inkscape:cy="800"
     inkscape:window-x="-8"
     inkscape:window-y="-8"
     inkscape:window-maximized="1"
     inkscape:current-layer="svg3331" />
  <path
     style="fill:#000000"
     d="m 335.83896,1501.4025 c -118.7656,-6.1761 -226.655,-77.082 -280.110496,-184.0911 -34.9265,-69.9172 -44.0161,-145.6383 -26.7513,-222.8538 4.7909,-21.427 15.073,-50.5254 24.4281,-69.1319 2.1636,-4.3031 3.9337,-8.1429 3.9337,-8.533 0,-0.3901 -1.4194,0.6124 -3.1543,2.2278 -2.5137,2.3407 -3.0076,2.531 -2.432,0.9371 C 125.68616,815.21314 161.28106,713.96446 195.52646,610.99768 c 12.6143,-37.92797 24.9673,-73.92153 27.451,-79.98568 28.4795,-69.53476 74.0871,-105.24915 148.8615,-116.57045 17.9474,-2.71734 55.729,-3.81937 70.1266,-2.04547 43.7307,5.38799 83.1911,24.39373 122.0182,58.76895 14.5975,12.92382 28.933,27.7712 54.8714,56.83063 31.1264,34.87179 42.1695,44.97004 53.5803,48.996 9.0755,3.20203 15.5832,1.17382 25.8871,-8.06805 26.3184,-23.60593 65.1167,-36.46599 110.01642,-36.46599 45.29878,0 83.02321,12.70641 110.7607,37.3066 10.7775,9.5585 18.06408,10.85631 29.21823,5.20408 11.02689,-5.58775 20.83268,-15.00803 51.01635,-49.01068 21.90144,-24.67254 34.20334,-37.56563 47.00474,-49.26372 37.2383,-34.02888 72.3517,-53.36762 112.2312,-61.81138 16.6585,-3.52714 48.7547,-4.42087 71.6438,-1.99494 76.1385,8.06963 124.8174,41.03648 156.6231,106.07004 9.2745,18.96365 13.1931,29.62286 35.2919,96 29.3677,88.21022 71.2523,207.54572 127.231,362.50002 7.2523,20.075 13.8291,38.28576 14.6152,40.46836 l 1.4292,3.9684 -3.0327,-2.9055 c -3.6685,-3.5147 -3.774,-2.9278 -0.5999,3.3361 8.7261,17.2201 18.5109,43.8323 23.948,65.1326 7.1636,28.0638 9.947,50.8755 9.9446,81.5 -0.01,77.1497 -24.8511,147.365 -73.9519,209 -11.1027,13.9368 -35.5861,38.4184 -49.8735,49.8698 -55.6538,44.6064 -122.0676,70.0057 -192.1506,73.486 -82.9204,4.1178 -159.5897,-20.8638 -226.3494,-73.7528 -12.7539,-10.104 -39.5558,-37.0325 -50.365,-50.603 -39.50553,-49.5974 -63.40223,-106.5178 -71.33165,-169.9076 -2.05627,-16.4383 -2.31782,-57.4074 -0.46661,-73.0924 10.60222,-89.831 52.50665,-166.86296 121.70406,-223.72576 42.6628,-35.0581 97.1537,-60.0295 152.0949,-69.7004 13.2854,-2.3385 8.5842,-2.6048 -9.6357,-0.5458 -64.9798,7.3433 -118.5353,25.1705 -160.8135,53.5305 -39.85486,26.7344 -68.05232,58.346 -96.48162,108.16356 -8.39741,14.7151 -8.40176,14.7265 -9.02972,23.5731 -2.1629,30.4712 -15.204,58.1137 -37.43849,79.3565 -31.04395,29.6592 -73.39328,40.4057 -115.38683,29.2805 -11.37848,-3.0145 -30.92248,-12.4848 -39.98648,-19.376 -15.3214,-11.6485 -30.5878,-30.3501 -37.8502,-46.3669 -6.4888,-14.3107 -11.0031,-32.7053 -11.01,-44.8623 0,-5.1091 -0.6342,-6.7989 -6.3509,-17 -21.4868,-38.34176 -42.085,-65.47896 -66.2919,-87.33706 -31.4724,-28.4184 -65.8487,-47.732 -110.2686,-61.9521 -26.8775,-8.6042 -67.7052,-16.3384 -95.0918,-18.0137 l -8.5,-0.52 10.0334,1.8862 c 55.6962,10.4703 103.3186,31.7012 147.5769,65.7924 13.6468,10.5118 44.404,40.9025 55.4539,54.7932 33.7741,42.45666 57.3489,93.76626 67.3224,146.52406 7.5153,39.7545 7.3376,85.8823 -0.4815,125 -17.6052,88.0758 -69.501,165.2564 -144.0712,214.2658 -28.5919,18.7912 -55.42,31.4033 -87.3339,41.056 -23.045,6.9703 -50.187,11.9481 -71.5,13.1132 -22.1839,1.2126 -27.2942,1.2747 -42,0.5099 z m 45.6583,-122.5334 c 86.6213,-11.1488 157.5193,-74.5784 178.181,-159.4115 4.6675,-19.1635 5.9197,-32.1971 5.3804,-56 -0.5286,-23.3333 -2.0829,-34.3217 -7.6574,-54.1358 -16.4909,-58.6161 -60.2255,-109.0802 -116.1678,-134.04276 -58.1892,-25.9651 -124.4247,-24.8324 -181.3945,3.1021 -33.9054,16.6251 -62.7573,41.89366 -83.1074,72.78556 -54.1159,82.149 -44.99,190.6611 22.1221,263.0437 32.4692,35.0192 81.3016,59.5794 129.4853,65.1246 12.8532,1.4792 39.8867,1.2423 53.1583,-0.4659 z m 909.00004,-0.01 c 95.0492,-12.2742 168.1419,-84.7838 182.3609,-180.9062 2.1834,-14.7599 2.2067,-42.3192 0.049,-58 -7.2822,-52.924 -33.3612,-100.2945 -73.8546,-134.151 -75.6235,-63.22876 -186.2624,-65.72576 -265.2137,-5.98556 -10.0875,7.63286 -27.8613,24.84026 -35.7768,34.63656 -58.3008,72.1536 -63.1798,175.5787 -11.8919,252.0825 34.4334,51.3627 86.9135,83.9632 148.6687,92.3529 14.076,1.9123 40.7324,1.8983 55.6583,-0.029 z M 608.33896,428.54849 c -40.6058,-41.39841 -91.6518,-66.91899 -151.5,-75.74271 -16.5886,-2.44574 -58.1177,-2.45063 -78.5,-0.009 -36.387,4.35842 -75.2467,14.93726 -103.8961,28.28385 -10.8438,5.0517 -12.6034,5.37069 -11.7342,2.12725 0.3317,-1.2375 0.6092,-3.1997 0.6167,-4.36045 0.01,-1.16075 1.1314,-3.75766 2.4977,-5.7709 1.3662,-2.01325 3.4288,-7.36354 4.5836,-11.88955 4.4619,-17.48809 12.4895,-34.94838 24.0598,-52.33089 8.9402,-13.4313 29.8461,-34.70687 43.8725,-44.64838 11.7095,-8.29932 36.2367,-20.6044 49.1204,-24.64327 21.0325,-6.59341 27.9469,-7.53404 55.3796,-7.53389 22.139,1.2e-4 26.1444,0.25379 35,2.21658 42.3107,9.37794 68.6174,23.12531 95.0023,49.64647 33.4666,33.63935 50.6806,75.49392 50.6069,123.04732 -0.023,14.58005 -1.7208,33.61058 -2.9827,33.42464 -0.3445,-0.051 -5.8015,-5.3686 -12.1265,-11.81707 z m 381.53132,5.71463 c -1.39415,-4.05793 -2.5313,-19.00778 -2.5313,-33.27849 0,-25.17495 3.67764,-43.97788 13.11452,-67.05129 13.6617,-33.40352 38.3488,-62.39648 69.4065,-81.51253 32.1578,-19.79312 83.3305,-31.85416 118.979,-28.04247 54.2571,5.8014 101.975,34.38785 131.9919,79.07264 11.0323,16.42331 22.1401,41.96849 25.5023,58.64888 0.6494,3.22177 2.3437,7.56866 3.7653,9.65976 1.7319,2.54768 2.7333,5.59561 3.0354,9.23863 l 0.4509,5.43662 -11.4488,-5.40025 c -27.3145,-12.88386 -57.9428,-21.97119 -89.297,-26.49414 -90.0362,-12.98801 -162.9783,5.28142 -235,58.85925 -7.15,5.31897 -16.2671,12.48291 -20.26011,15.91987 -4.69373,4.04006 -7.41863,5.78754 -7.70861,4.94352 z"
     id="path3884"
     inkscape:connector-curvature="0" />
</svg>
