<?xml version="1.0" encoding="UTF-8" standalone="no"?>
<!-- Created with Inkscape (http://www.inkscape.org/) -->

<svg
   xmlns:dc="http://purl.org/dc/elements/1.1/"
   xmlns:cc="http://creativecommons.org/ns#"
   xmlns:rdf="http://www.w3.org/1999/02/22-rdf-syntax-ns#"
   xmlns:svg="http://www.w3.org/2000/svg"
   xmlns="http://www.w3.org/2000/svg"
   xmlns:sodipodi="http://sodipodi.sourceforge.net/DTD/sodipodi-0.dtd"
   xmlns:inkscape="http://www.inkscape.org/namespaces/inkscape"
   version="1.1"
   id="svg5549"
   width="167"
   height="72"
   viewBox="0 0 167 72"
   sodipodi:docname="car.svg"
   inkscape:version="0.92.3 (2405546, 2018-03-11)">
  <metadata
     id="metadata5555">
    <rdf:RDF>
      <cc:Work
         rdf:about="">
        <dc:format>image/svg+xml</dc:format>
        <dc:type
           rdf:resource="http://purl.org/dc/dcmitype/StillImage" />
        <dc:title></dc:title>
      </cc:Work>
    </rdf:RDF>
  </metadata>
  <defs
     id="defs5553" />
  <sodipodi:namedview
     pagecolor="#ffffff"
     bordercolor="#666666"
     borderopacity="1"
     objecttolerance="10"
     gridtolerance="10"
     guidetolerance="10"
     inkscape:pageopacity="0"
     inkscape:pageshadow="2"
     inkscape:window-width="1366"
     inkscape:window-height="705"
     id="namedview5551"
     showgrid="false"
     inkscape:zoom="2.2754491"
     inkscape:cx="87.235526"
     inkscape:cy="32.264474"
     inkscape:window-x="-8"
     inkscape:window-y="-8"
     inkscape:window-maximized="1"
     inkscape:current-layer="svg5549" />
  <path
     style="fill:#000000"
     d="m 22.02126,63.647923 c -4.676535,-2.78404 -6.901112,-6.679335 -6.89647,-12.075899 0.0074,-8.554191 7.031131,-14.735374 15.250533,-13.421039 7.248322,1.159053 11.728085,6.226165 11.739141,13.278278 0.0087,5.526492 -1.371971,8.33256 -5.48713,11.15232 -4.845643,3.32028 -10.167362,3.70881 -14.606074,1.06634 z m 11.504548,-3.06016 c 3.282306,-1.49552 5.921874,-7.097831 5.102304,-10.829305 -1.094798,-4.984585 -4.801043,-8.032142 -9.76818,-8.032142 -4.626061,0 -6.443426,0.993872 -9.092576,4.972506 -5.589685,8.394885 4.177234,18.254431 13.758452,13.888941 z m -8.710094,-0.56143 c -0.992937,-0.25739 -1.630437,-0.99269 -1.416667,-1.634 0.607838,-1.823514 4.156052,-1.366264 4.531635,0.58398 0.343198,1.78209 0.06757,1.875 -3.114968,1.05002 z m 4.305339,-0.8314 c 0,-1.77544 2.401175,-2.956745 4.000671,-1.968202 0.786367,0.486002 0.765282,1.076672 -0.07456,2.088612 -1.554571,1.87315 -3.926111,1.80041 -3.926111,-0.12041 z M 20.707422,55.63238 c -0.958218,-4.349467 -0.987174,-5.380407 -0.215032,-7.656064 0.910869,-2.68451 2.165558,-2.899212 3.0761,-0.526381 0.395642,1.031026 0.05411,2.167693 -0.849963,2.828764 -1.338601,0.978809 -1.320326,1.296195 0.15986,2.776381 1.555542,1.55554 1.556592,1.785881 0.01517,3.3273 -1.541418,1.541423 -1.692759,1.489503 -2.186137,-0.75 z m 13.363107,0.533058 c -1.184935,-1.427759 -1.112095,-1.847044 0.5294,-3.047335 1.871178,-1.368238 1.871178,-1.415336 0,-2.783574 -1.641495,-1.200291 -1.714335,-1.619576 -0.5294,-3.047335 1.803252,-2.172786 3.019898,-0.384367 3.019898,4.439122 0,4.823489 -1.216646,6.611907 -3.019898,4.439122 z m -3.449476,-1.439122 c -0.339919,-0.55 -0.141476,-1 0.440983,-1 0.582459,0 1.059017,0.45 1.059017,1 0,0.55 -0.198442,1 -0.440983,1 -0.242541,0 -0.719098,-0.45 -1.059017,-1 z m -3.144276,-2.582783 c -0.390413,-1.054469 -1.179632,-2.230249 -1.753822,-2.612844 -0.57419,-0.382595 -0.82529,-0.914318 -0.558001,-1.181607 0.267289,-0.267289 1.604257,0.358947 2.971039,1.391635 1.953648,1.476101 2.224767,2.138762 1.267843,3.098825 -0.957893,0.961033 -1.368448,0.81275 -1.927059,-0.696009 z m 3.144276,-3.417217 c 0.339919,-0.55 0.816476,-1 1.059017,-1 0.242541,0 0.440983,0.45 0.440983,1 0,0.55 -0.476558,1 -1.059017,1 -0.582459,0 -0.780902,-0.45 -0.440983,-1 z m -7.034879,-3.056435 c -0.764885,-1.237608 1.144619,-2.902638 3.358203,-2.928252 1.884968,-0.02181 0.9877,3.397399 -0.991571,3.778572 -0.904904,0.174268 -1.969888,-0.208375 -2.366632,-0.85032 z m 5.908316,-0.412787 c -0.341283,-0.889369 -0.373834,-1.863714 -0.07234,-2.165212 0.962454,-0.962455 4.824427,0.757794 4.42108,1.969293 -0.613135,1.841618 -3.664478,1.979087 -4.348744,0.195919 z m 97.3947,18.464349 c -2.05253,-1.11336 -4.41503,-3.34538 -5.25,-4.96005 -2.992,-5.785892 -1.25194,-14.00684 3.69865,-17.474373 1.22552,-0.858387 1.76637,-1.560704 1.20188,-1.560704 -1.61616,0 -7.18595,6.208101 -8.35734,9.3151 -0.58373,1.548304 -1.06133,3.910804 -1.06133,5.25 v 2.4349 H 81.251104 45.381157 l -0.498008,-4.418314 c -0.98177,-8.710239 -8.048028,-15.498737 -16.196372,-15.559724 -7.210071,-0.05396 -14.68822,6.340514 -16.188665,13.842739 -0.718707,3.593535 -1.459229,3.790548 -5.4303837,1.444728 -3.621931,-2.139527 -5.161187,-5.832263 -4.760908,-11.421606 0.272495,-3.805013 0.742375,-4.601728 3.5376,-5.998254 1.772853,-0.885737 6.2451837,-4.437192 9.9385147,-7.892121 7.355249,-6.880474 17.623779,-13.905021 24.861863,-17.0076264 5.288854,-2.267068 5.833236,-2.376448 4.983333,-1.001276 -0.34985,0.56607 0.04984,0.734973 0.93524,0.395215 0.850406,-0.326332 1.25425,-1.065706 0.897429,-1.643054 -0.356821,-0.577348 -0.183894,-0.762418 0.384281,-0.411267 0.568175,0.351152 2.325204,0.009 3.904508,-0.760235 8.506785,-4.143663 31.720966,-4.491219 44.715462,-0.669467 9.098399,2.675888 14.320679,5.2930174 23.028749,11.5407714 6.21373,4.458146 8.30557,5.378411 14.58149,6.414855 11.24971,1.857851 16.28753,4.48089 23.09734,12.026084 5.27806,5.848027 5.94843,7.06503 5.94843,10.798906 0,5.977173 -3.11907,9.353313 -9.283,10.048076 -4.53484,0.511143 -4.717,0.432624 -4.717,-2.033278 0,-1.410724 -0.4776,-3.831748 -1.06133,-5.380052 -1.11902,-2.968087 -6.71411,-9.3151 -8.21156,-9.3151 -0.48431,0 0.49584,1.158163 2.1781,2.573696 1.68227,1.415532 3.56776,4.272911 4.18999,6.34973 0.96422,3.218273 0.833,4.450472 -0.8884,8.341962 -3.46114,7.824499 -11.20795,10.651919 -18.43867,6.729739 z m 13.30879,-4.9182 c 3.94976,-3.949761 3.98937,-8.851986 0.10664,-13.197514 -3.80664,-4.260373 -10.03808,-4.479447 -14.02448,-0.493049 -3.87016,3.870157 -3.79851,10.806716 0.14667,14.200223 4.11744,3.54167 9.93515,3.32636 13.77117,-0.50966 z m -11.06857,0.9494 c -1.15965,-0.73316 -1.22473,-1.20996 -0.29238,-2.1423 0.93234,-0.93235 1.54254,-0.914366 2.74164,0.0808 2.98789,2.47971 0.9394,4.20388 -2.44926,2.0615 z m 5.20931,-0.77633 c 0.22241,-1.06834 1.15652,-1.669302 2.39813,-1.54283 1.50412,0.15321 2.01433,-0.359538 1.95901,-1.968791 -0.045,-1.310191 0.62149,-2.317021 1.6752,-2.530492 2.46593,-0.499572 2.17548,1.133006 -0.83889,4.715393 -2.84853,3.38527 -5.77777,4.13359 -5.19345,1.32672 z m -9.12673,-3.499997 c -0.62789,-1.672684 -0.45793,-2.339392 0.6624,-2.598393 1.79347,-0.41462 3.27132,1.620544 2.54715,3.507709 -0.77888,2.029741 -2.26425,1.608911 -3.20955,-0.909316 z m 7.40906,0.25 c 0.33993,-0.55 0.81649,-1 1.05903,-1 0.24254,0 0.44098,0.45 0.44098,1 0,0.55 -0.47656,1 -1.05902,1 -0.58247,0 -0.78091,-0.45 -0.44099,-1 z m -1.0416,-3.067308 c -0.36322,-0.587703 0.2843,-1.314152 1.44099,-1.616631 1.15534,-0.302128 2.10062,-0.94684 2.10062,-1.432692 0,-0.485853 0.46037,-0.883369 1.02305,-0.883369 0.56268,0 0.28593,1.125 -0.61501,2.5 -1.76908,2.699955 -2.91054,3.114006 -3.94965,1.432692 z m -6.74407,-2.948276 c 0.69552,-2.659701 2.30403,-3.57275 3.34027,-1.89607 0.94463,1.528443 -0.62935,3.911654 -2.58343,3.911654 -0.79491,0 -1.08318,-0.767688 -0.75684,-2.015584 z m 13.66568,0.563471 c -0.97935,-2.552143 0.75457,-4.084339 2.27264,-2.008248 0.74105,1.013441 1.34736,2.206612 1.34736,2.651491 0,1.411185 -3.03885,0.871208 -3.62,-0.643243 z m -9.88001,-3.547887 c -1.12721,-1.823871 0.57105,-3.000195 4.30902,-2.984687 5.00821,0.02078 6.82625,1.212575 4.63011,3.035211 -1.42135,1.179614 -1.83381,1.130192 -2.91568,-0.349361 -1.11678,-1.527279 -1.40282,-1.551427 -2.51425,-0.212253 -1.45499,1.753165 -2.63531,1.925069 -3.5092,0.51109 z m 32.36535,3.448966 c 0.31608,-1.631099 0.14754,-1.704542 -1.25,-0.544689 -1.91126,1.5862 -2.14923,3.440154 -0.36534,2.84619 0.6875,-0.22891 1.4144,-1.264585 1.61534,-2.301501 z m -1.11534,-6.138292 c -0.9625,-0.251527 -2.5375,-0.251527 -3.5,0 -0.9625,0.251528 -0.175,0.457323 1.75,0.457323 1.925,0 2.7125,-0.205795 1.75,-0.457323 z M 10.121052,40.726316 c 0,-0.55 -1.1249997,-1 -2.4999997,-1 -1.375,0 -2.5,0.45 -2.5,1 0,0.55 1.125,1 2.5,1 1.375,0 2.4999997,-0.45 2.4999997,-1 z m 147.000008,-1.54966 c 0,-2.738754 -5.02482,-8.45034 -7.43426,-8.45034 -1.33307,0 -0.40016,3.940788 1.50684,6.365141 1.78059,2.263658 5.92742,3.722465 5.92742,2.085199 z M 16.15827,30.656773 c 0.738418,-1.379746 0.709655,-1.930457 -0.100824,-1.930457 -1.34267,0 -6.9363937,5.785216 -6.9363937,7.173849 0,1.381463 5.8075277,-2.945694 7.0372177,-5.243392 z m 98.76449,-7.137761 C 115.42427,20.912483 102.95655,12.245766 95.046432,9.7023216 90.803359,8.3379916 85.430599,7.5149766 80.030212,7.4020926 l -8.40916,-0.175777 -0.258139,6.0000004 c -0.148082,3.441927 0.290139,7.065864 1.027854,8.5 l 1.285992,2.5 18.472147,0.5 c 10.159674,0.275 19.366124,0.5 20.458754,0.5 1.09264,0 2.13443,-0.768287 2.3151,-1.707304 z M 64.027586,16.226316 c -0.10918,-4.125 -0.501139,-7.5000004 -0.87102,-7.5000004 -6.006384,0 -23.035513,9.6714884 -23.035513,13.0827414 0,1.783628 0.840046,1.917259 12.052521,1.917259 h 12.052521 z m 58.593464,4.924192 c -4.57304,-3.816781 -17.50543,-11.7520924 -18.13184,-11.125685 -0.30471,0.304711 0.79448,1.251358 2.44265,2.10366 1.64817,0.852302 5.81374,3.810484 9.25682,6.573737 3.44308,2.763253 6.97389,5.007913 7.84626,4.988133 1.08996,-0.02471 0.64769,-0.819194 -1.41389,-2.539845 z M 35.449611,15.613104 c 9.666878,-6.4434444 9.264779,-7.0989534 -0.828558,-1.35073 -7.188452,4.093871 -11.499623,7.411108 -9.671442,7.441706 0.730707,0.01223 5.455707,-2.728709 10.5,-6.090976 z"
     id="path6102"
     inkscape:connector-curvature="0" />
</svg>
