<?xml version="1.0" encoding="UTF-8" standalone="no"?>
<!-- Created with Inkscape (http://www.inkscape.org/) -->

<svg
   xmlns:dc="http://purl.org/dc/elements/1.1/"
   xmlns:cc="http://creativecommons.org/ns#"
   xmlns:rdf="http://www.w3.org/1999/02/22-rdf-syntax-ns#"
   xmlns:svg="http://www.w3.org/2000/svg"
   xmlns="http://www.w3.org/2000/svg"
   xmlns:sodipodi="http://sodipodi.sourceforge.net/DTD/sodipodi-0.dtd"
   xmlns:inkscape="http://www.inkscape.org/namespaces/inkscape"
   version="1.1"
   id="svg6659"
   width="430"
   height="130"
   viewBox="0 0 430 130"
   sodipodi:docname="plane2.svg"
   inkscape:version="0.92.3 (2405546, 2018-03-11)">
  <metadata
     id="metadata6665">
    <rdf:RDF>
      <cc:Work
         rdf:about="">
        <dc:format>image/svg+xml</dc:format>
        <dc:type
           rdf:resource="http://purl.org/dc/dcmitype/StillImage" />
        <dc:title></dc:title>
      </cc:Work>
    </rdf:RDF>
  </metadata>
  <defs
     id="defs6663" />
  <sodipodi:namedview
     pagecolor="#ffffff"
     bordercolor="#666666"
     borderopacity="1"
     objecttolerance="10"
     gridtolerance="10"
     guidetolerance="10"
     inkscape:pageopacity="0"
     inkscape:pageshadow="2"
     inkscape:window-width="1366"
     inkscape:window-height="705"
     id="namedview6661"
     showgrid="false"
     inkscape:zoom="0.92325581"
     inkscape:cx="215"
     inkscape:cy="65"
     inkscape:window-x="-8"
     inkscape:window-y="-8"
     inkscape:window-maximized="1"
     inkscape:current-layer="svg6659" />
  <path
     style="fill:#000000"
     d="m 59.098773,121.7783 c -16.48996,-2.14933 -41.27704,-10.73173 -46.17331,-15.98726 -2.55,-2.73709 -2.8556,-7.740145 -0.72453,-11.861185 3.06949,-5.93575 16.70793,-16.65338 29.15069,-22.90777 14.65206,-7.36491 15.97056,-7.5756 46.39901,-7.41421 15.124997,0.0802 49.549997,0.66953 76.499997,1.30958 61.94335,1.47111 130.89677,0.79194 145,-1.42821 5.5,-0.86582 12.25,-2.25855 15,-3.09496 10.46302,-3.1823 28.37976,-16.81175 51.3299,-39.04718 L 388.4961,8.8337552 h 14.12726 c 12.36409,0 14.12727,0.20247 14.12727,1.6222498 0,2.12726 -13.07675,41.70657 -18.57747,56.22829 -4.06643,10.73524 -4.18086,11.31517 -2.11102,10.69788 4.77351,-1.42358 9.45084,-1.74196 10.10244,-0.68765 1.9495,3.15436 -26.07582,24.469835 -41.25477,31.377495 -16.06108,7.30912 -18.04966,7.67079 -48.07939,8.7444 -69.75757,2.49396 -228.994777,6.29154 -246.579787,5.88058 -2.75,-0.0643 -7.76834,-0.47768 -11.15186,-0.9187 z M 150.55063,85.633755 c 1.69649,-1.6965 1.53117,-10.28027 -0.2261,-11.73867 -0.78435,-0.65095 -3.37185,-1.04355 -5.75,-0.87244 l -4.3239,0.31111 -0.29598,6.18321 -0.29599,6.18321 3.29599,0.40675 c 1.81279,0.22372 3.99348,0.47877 4.84598,0.56679 0.8525,0.088 2.09,-0.37996 2.75,-1.03996 z m 18,0 c 1.67578,-1.67578 1.56669,-10.72206 -0.13719,-11.3759 -0.73545,-0.28222 -3.32295,-0.6056 -5.75,-0.71861 l -4.41281,-0.20549 -0.52949,5.26834 c -0.29122,2.89758 -0.15636,5.93508 0.29969,6.75 1.01669,1.81672 8.78689,2.02457 10.5298,0.28166 z m 18.5887,-3.67253 c 0.96106,-7.24483 0.32155,-8.12747 -5.8887,-8.12747 -5.81444,0 -6.5,0.68556 -6.5,6.5 0,5.81011 0.68757,6.5 6.47816,6.5 h 5.26418 z m 19.43089,0.46785 c 0.17577,-2.14757 0.0489,-4.98309 -0.28189,-6.30115 -0.55143,-2.19707 -1.03373,-2.37142 -5.79623,-2.09533 l -5.19475,0.30116 -0.76302,4.49489 c -1.23468,7.27337 -0.55574,8.14917 6.04875,7.80255 l 5.66755,-0.29744 z m 17.51518,-0.77411 c 0.37776,-3.18958 0.19217,-5.68628 -0.48315,-6.5 -1.62115,-1.95336 -10.47379,-1.74821 -11.24463,0.26057 -0.817,2.12908 -0.77377,9.91811 0.0597,10.75155 0.36664,0.36667 3.00396,0.66667 5.86069,0.66667 h 5.19404 z m 18.46295,-1.07121 -0.29772,-6.25 -4.90325,-0.31105 c -3.24554,-0.20589 -5.18435,0.13219 -5.73469,1 -0.99332,1.56632 -1.14461,10.19516 -0.19539,11.14438 0.36666,0.36667 3.08814,0.66667 6.04771,0.66667 h 5.38105 z m 18,0 -0.29772,-6.25 h -5.5 -5.5 l -0.30981,4.87294 c -0.45552,7.16465 -0.072,7.62706 6.32614,7.62706 h 5.5791 z m 17.70228,-0.25 v -6 h -5.5 -5.5 l -0.30981,4.87294 c -0.46213,7.26865 -0.0456,7.78027 6.04863,7.4297 l 5.26118,-0.30264 z m 18,0 v -6 h -5.5 -5.5 l -0.30981,4.87294 c -0.46213,7.26865 -0.0456,7.78027 6.04863,7.4297 l 5.26118,-0.30264 z m -241.999997,-1.5 c 0,-5.98621 -0.17848,-6.52534 -2.25797,-6.8206 -2.22479,-0.31588 -17.67879,7.846 -22.43075,11.84659 -2.30907,1.94397 -2.29837,1.9456 11.18872,1.70992 l 13.5,-0.23591 z m 60.999997,0.5 v -6 h -5.5 -5.5 l -0.30981,4.87294 c -0.46213,7.26865 -0.0456,7.78027 6.04863,7.4297 l 5.26118,-0.30264 z m 18,0 v -6 h -5.5 -5.5 l -0.30981,4.87294 c -0.46213,7.26865 -0.0456,7.78027 6.04863,7.4297 l 5.26118,-0.30264 z"
     id="path7212"
     inkscape:connector-curvature="0" />
</svg>
