<?xml version="1.0" encoding="utf-8"?>
<!-- Generator: Adobe Illustrator 22.1.0, SVG Export Plug-In . SVG Version: 6.00 Build 0)  -->
<svg version="1.1"
	 id="svg821" inkscape:version="0.92.3 (2405546, 2018-03-11)" sodipodi:docname="logo7.svg" xmlns:cc="http://creativecommons.org/ns#" xmlns:dc="http://purl.org/dc/elements/1.1/" xmlns:inkscape="http://www.inkscape.org/namespaces/inkscape" xmlns:rdf="http://www.w3.org/1999/02/22-rdf-syntax-ns#" xmlns:sodipodi="http://sodipodi.sourceforge.net/DTD/sodipodi-0.dtd" xmlns:svg="http://www.w3.org/2000/svg"
	 xmlns="http://www.w3.org/2000/svg" xmlns:xlink="http://www.w3.org/1999/xlink" x="0px" y="0px" viewBox="0 0 320 394.7"
	 style="enable-background:new 0 0 320 394.7;" xml:space="preserve">
<style type="text/css">
	.st0{fill:#CDB1D6;}
	.st1{fill:#FAD028;}
	.st2{fill:#008080;}
	.st3{font-family:'MaiandraGD-Regular';}
	.st4{font-size:37.7909px;}
	.st5{font-family:'TrebuchetMS-Bold';}
</style>
<sodipodi:namedview  bordercolor="#666666" borderopacity="1" gridtolerance="10" guidetolerance="10" id="namedview823" inkscape:current-layer="g1390" inkscape:cx="95.589873" inkscape:cy="109.35597" inkscape:pageopacity="0" inkscape:pageshadow="2" inkscape:window-height="705" inkscape:window-maximized="1" inkscape:window-width="1366" inkscape:window-x="-8" inkscape:window-y="-8" inkscape:zoom="0.84566151" objecttolerance="10" pagecolor="#ffffff" showgrid="false">
	</sodipodi:namedview>
<g id="g1390" transform="translate(2.0604711,1.6890588)">
	<path id="path1430" inkscape:connector-curvature="0" class="st0" d="M38.9,347.3c-13.3-2.5-24.7-9.1-32.1-18.7
		c-5.4-7-6-9.2-5.4-18.9c0.4-6,1.1-8.5,3.8-12.4c4.8-6.9,13.3-13.2,21.9-16.1c18.5-6.2,54-0.3,93.1,15.4l14.7,5.9l6.8-3.8
		c21.1-11.7,44.4-23.2,54.3-26.7c10.8-3.8,12-4,27.7-4c14.4,0,17.1,0.3,22.7,2.6c13.7,5.7,21.4,16.4,21.4,29.8
		c0,12.3-4.5,20.7-16.3,30.5c-22.6,18.8-51.8,21.4-92.4,8.2c-7.9-2.5-19.1-6.6-25-9.1l-10.6-4.4l-5.3,2.7c-10,5.2-30.1,13.1-40.5,16
		C66.1,347.8,48.2,349.1,38.9,347.3L38.9,347.3z M216.9,336.3c4.8-1,12.1-3.7,16.2-5.9c9.7-5.2,20.6-16.6,22.4-23.3
		c2.7-10.3-2.3-19.1-13.3-23.4c-5.6-2.2-8.1-2.4-18.9-2c-15.2,0.7-24.8,3.9-49.2,16.5c-23.1,12-22.6,11.4-11.4,13.2
		c10.9,1.7,21.7,1,31.9-2.3c3.9-1.2,7.3-2.1,7.5-1.9c0.5,0.6-9.7,4.9-15.5,6.6c-6.3,1.8-28.4,1.9-34.3,0.2c-4.1-1.2-4.9-1-13.4,3.7
		l-9.1,5l10.8,3.6C174.3,337.5,197.2,340.4,216.9,336.3L216.9,336.3z M60.6,333.4c4.3-0.6,11.5-2.2,15.8-3.5
		c8-2.4,26.3-9.9,28.1-11.5c1.5-1.4-10.1-4.8-21.3-6.4L73,310.6l9-0.1c6,0,12.3,0.8,18.6,2.6l9.6,2.6l9-4.6l9-4.6l-7.9-2.8
		c-36-12.6-74.1-17.6-89.4-11.8c-6.9,2.6-14.3,8.7-16.9,13.9c-4.4,8.8,0,16.3,13.9,23.1C38.6,334.3,47.1,335.4,60.6,333.4z
		 M76.1,245c-3.2-1.7-8.2-5.6-10.9-8.8c-6.6-7.6-9-15-8.9-27.6c0.2-19.4,7.6-33.5,30.2-57.7c15-16.1,20.7-24,25.4-35.7
		c4.6-11.5,6.1-19.1,5.5-28.1c-0.7-9.3,0.6-9.4,3.2-0.2c3.9,13.8-0.2,37.5-9.3,53.1c-2.3,3.9-8.4,12.2-13.7,18.5
		c-23.5,28-28.5,37.7-28.6,55.4c0,9.3,4.2,18.2,11.1,23c4.3,3,5.9,3.5,12.4,3.4c8.1-0.1,13.1-2,18.5-7.2c4.2-4,3.9-1.8-0.4,3.6
		c-5.4,6.8-12.4,10.3-21.2,10.9C83.1,248,81.2,247.7,76.1,245L76.1,245z M160.3,242.1l-3.7-3.5l4.1,1.9c5.6,2.6,11.3,1.4,16-3.5
		c6.3-6.5,8-11.5,8.5-24.6c0.7-20.1-5.6-37.3-24.3-67.1c-25.7-40.7-35.1-64.7-33.9-86.8c0.5-9,1.1-11.9,4-18
		c3.2-6.7,11.5-16.8,11.5-14c0,0.7-0.7,1.8-1.6,2.6c-0.9,0.7-2.8,4.1-4.2,7.4c-3.7,8.5-3.7,24.8,0,35.5c5.1,15,16.8,35.9,38.2,68.8
		c8.7,13.3,12.9,21.9,16.6,33.8c9.6,31.2,4.9,56.1-12.8,67.6C171.7,246.9,165.3,246.8,160.3,242.1L160.3,242.1z M125.1,207.4
		c-10.9-9.8-9.8-37.7,1.8-45.1c5-3.2,9.5-2.2,14.1,2.8c7.4,8.1,9,24.2,3.6,35.9C140,211.1,132.1,213.7,125.1,207.4z M-2.1,13.3"/>
	<path id="path1460" inkscape:connector-curvature="0" class="st1" d="M35.1,347c-9.5-2.5-18.3-7.3-24.6-13.7
		c-8.1-8.1-9.5-11.3-9.4-20.8c0.1-9.7,1.8-13.9,8-20.2c10.8-11,20.1-14.1,40.9-13.3c21.2,0.8,42.3,5.9,71.3,17.5l13.7,5.5l9.1-5
		c15.8-8.7,42.8-22,52.2-25.5c9-3.4,9-3.4,27.6-3.4c17.9,0,18.7,0.1,24.2,2.7c6.9,3.3,14.3,10,17.1,15.7c3,5.9,3.6,19,1.2,26.3
		c-1.4,4.4-3.4,7.1-9.9,13.8c-9.7,9.9-20,15.8-33.3,19c-7.7,1.9-10.8,2.1-23.4,1.6c-9-0.3-17.8-1.3-23.1-2.6
		c-10.5-2.5-31.4-9.4-43.7-14.5l-9.2-3.8l-3.9,2c-10.9,5.7-36.8,15.5-47,17.7C62.6,348.4,42.3,348.9,35.1,347L35.1,347z
		 M216.4,335.8c14.2-3.1,29-12.9,36.4-24.4c5.1-7.9,3-18.3-4.9-23.9c-9.8-7-28.2-7.3-46.7-0.8c-7.3,2.5-39,18.1-43.6,21.4
		c-2,1.5-2,1.5,0.8,2.3c5.7,1.6,28.5,0.9,35-1c10.6-3.2,10.2-3.2,8.5-1.5c-0.8,0.8-4.7,2.8-8.5,4.4c-6.6,2.7-7.9,2.9-22.5,2.9
		c-8.5,0-17.6-0.2-20-0.4c-3.9-0.4-5.6,0.1-11.9,3.8l-7.4,4.2l10.9,3.6c13,4.3,26.2,7.7,36.5,9.5
		C189.2,337.6,207.9,337.6,216.4,335.8L216.4,335.8z M60.8,332.7c14-2.2,44.1-12.9,42.1-15c-1.3-1.4-15-4.7-22.8-5.6
		c-5.8-0.6-6.6-0.9-4.6-1.7c3.2-1.2,14.4-0.1,25.4,2.4l8.8,2.1l8.5-3.9c4.7-2.1,8.1-4.2,7.7-4.7c-1.4-1.4-27.5-9-39.8-11.6
		c-24.3-5.1-46.2-6-55.2-2.1c-15.2,6.6-21.6,18.6-14.6,27.3c5.2,6.5,21.4,13.4,32.6,14.1C50.1,334.1,55.4,333.5,60.8,332.7
		L60.8,332.7z"/>
	<path id="path1462" inkscape:connector-curvature="0" class="st1" d="M163.2,244.8c-2.8-1.6-6.5-5.1-6.5-6.2c0-0.5,1.3-0.2,3,0.7
		c7,3.7,14.8,0.9,20.3-7.2c6.6-9.7,6.3-32.3-0.7-50.6c-3.5-9.1-9.8-21-20.3-38.1c-25.5-41.5-33.1-61.7-32.1-85.2
		c0.4-10,0.8-11.8,3.7-17.6c3.5-7,11.2-16.4,11.8-14.5c0.2,0.6-0.7,2.9-2.2,5c-5.5,8.3-7.2,24.2-4,36.9c3.2,12.6,15.1,35,36.2,67.8
		c11.7,18.3,17.4,30.2,20.9,43.9c6.2,24.2,3.8,43.7-7,56.6C180.1,243.9,168.9,248,163.2,244.8z"/>
	<path id="path1464" inkscape:connector-curvature="0" class="st1" d="M126.9,209.1c-6.3-3.9-9.5-12.2-9.5-24.1
		c0.1-19.9,13-31.5,22.9-20.8c6.5,7,9.1,17.2,7.2,27.9C144.9,207.5,136,214.8,126.9,209.1L126.9,209.1z"/>
	<path id="path1466" inkscape:connector-curvature="0" class="st1" d="M76.8,245.8c-6.1-3-13.4-10.1-16.5-15.9
		c-6.7-12.6-5.9-32.2,2-48c3.7-7.5,11.7-18,23.8-31.3c17.6-19.4,22.9-27.5,28.1-43.5c2-6.1,2.5-9.7,2.5-17.6c0-7.1,0.3-9.8,1.2-9.5
		c4.6,1.6,5.8,25.2,2,39.3c-4.5,16.6-7.5,21.8-24.8,43.1c-20.3,25-24.8,34.1-24.9,49.7c-0.1,9,0.2,10.1,3,15.4c2,3.7,4.8,6.8,7.9,9
		c4.1,2.9,5.6,3.3,10.9,3.3c7.5-0.1,12.2-1.7,17.6-6.1c7.6-6.2,6.3-1.4-1.8,6.4C99.6,247.9,86,250.4,76.8,245.8L76.8,245.8z"/>
</g>
<text transform="matrix(0.9253 0 0 1 120.9683 81.1348)"><tspan x="0" y="0" class="st2 st3 st4">        YOGA</tspan><tspan x="0" y="63" class="st2 st3 st4">      MASTER</tspan></text>
<text transform="matrix(0.9526 0 0 1 212 369.8145)" class="st5 st4"> </text>
</svg>
