<?xml version="1.0" encoding="UTF-8" standalone="no"?>
<!-- Created with Inkscape (http://www.inkscape.org/) -->

<svg
   xmlns:dc="http://purl.org/dc/elements/1.1/"
   xmlns:cc="http://creativecommons.org/ns#"
   xmlns:rdf="http://www.w3.org/1999/02/22-rdf-syntax-ns#"
   xmlns:svg="http://www.w3.org/2000/svg"
   xmlns="http://www.w3.org/2000/svg"
   xmlns:sodipodi="http://sodipodi.sourceforge.net/DTD/sodipodi-0.dtd"
   xmlns:inkscape="http://www.inkscape.org/namespaces/inkscape"
   version="1.1"
   id="svg821"
   width="320"
   height="394.66666"
   viewBox="0 0 320 394.66666"
   sodipodi:docname="logo7.svg"
   inkscape:version="0.92.3 (2405546, 2018-03-11)">
  <metadata
     id="metadata827">
    <rdf:RDF>
      <cc:Work
         rdf:about="">
        <dc:format>image/svg+xml</dc:format>
        <dc:type
           rdf:resource="http://purl.org/dc/dcmitype/StillImage" />
        <dc:title></dc:title>
      </cc:Work>
    </rdf:RDF>
  </metadata>
  <defs
     id="defs825" />
  <sodipodi:namedview
     pagecolor="#ffffff"
     bordercolor="#666666"
     borderopacity="1"
     objecttolerance="10"
     gridtolerance="10"
     guidetolerance="10"
     inkscape:pageopacity="0"
     inkscape:pageshadow="2"
     inkscape:window-width="1366"
     inkscape:window-height="705"
     id="namedview823"
     showgrid="false"
     inkscape:zoom="0.84566151"
     inkscape:cx="95.589873"
     inkscape:cy="109.35597"
     inkscape:window-x="-8"
     inkscape:window-y="-8"
     inkscape:window-maximized="1"
     inkscape:current-layer="g1390" />
  <g
     id="g1390"
     transform="translate(2.0604711,1.6890588)">
    <path
       style="fill:#cdb1d6;stroke-width:1.33333337"
       d="m 46.301678,383.43261 c -15.67815,-2.82768 -29.09429,-10.4578 -37.8380698,-21.5195 -6.34487,-8.02687 -7.08927,-10.57056 -6.3752,-21.78484 0.437,-6.86286 1.3557,-9.7543 4.53786,-14.28195 5.6216898,-7.99869 15.7491098,-15.27316 25.8871798,-18.59461 21.86039,-7.16194 63.65821,-0.38815 109.843942,17.8014 l 17.38935,6.84852 8.05003,-4.38272 c 24.86778,-13.53892 52.35716,-26.73471 64.05001,-30.74607 12.76235,-4.37826 14.16125,-4.57532 32.66667,-4.60157 17.01181,-0.0241 20.22661,0.33356 26.77246,2.97887 16.16632,6.53314 25.22754,18.85902 25.22754,34.31679 0,14.16072 -5.291,23.84104 -19.1981,35.12448 -26.65181,21.62382 -61.09488,24.62566 -109.07317,9.50614 -9.31587,-2.93574 -22.56953,-7.6379 -29.4526,-10.44926 l -12.51467,-5.11156 -6.21693,3.15954 c -11.80285,5.99837 -35.48303,15.14061 -47.827532,18.46484 -13.91057,3.74593 -34.97799,5.24657 -45.92877,3.2715 z M 256.23633,370.68812 c 5.65241,-1.16251 14.2792,-4.21165 19.17064,-6.77587 11.43809,-5.99616 24.27944,-19.08748 26.38192,-26.89548 3.20973,-11.92002 -2.65967,-22.02876 -15.63496,-26.92776 -6.64259,-2.508 -9.55604,-2.80336 -22.30715,-2.26144 -17.92179,0.76167 -29.20561,4.46678 -58,19.0446 -27.24587,13.79387 -26.70729,13.18246 -13.43104,15.24774 12.88989,2.00518 25.62529,1.12573 37.58041,-2.59512 4.62156,-1.43839 8.59684,-2.42124 8.83398,-2.18411 0.6425,0.64251 -11.44271,5.63307 -18.31668,7.56381 -7.45072,2.09276 -33.54563,2.21976 -40.48443,0.19704 -4.86165,-1.4172 -5.75229,-1.17494 -15.85019,4.31128 l -10.69909,5.81286 12.78392,4.09505 c 39.76551,12.73803 66.73851,16.14587 89.97267,11.3674 z M 71.840188,367.40117 c 5.12972,-0.74126 13.52972,-2.57918 18.66667,-4.08426 9.47133,-2.77502 31.076262,-11.40014 33.126332,-13.22471 1.75571,-1.56259 -11.91936,-5.57688 -25.119742,-7.37385 l -12,-1.63356 10.66666,-0.0696 c 7.071712,-0.0461 14.486322,0.9512 22.000002,2.95918 l 11.33334,3.02878 10.66666,-5.29763 10.66667,-5.29763 -9.33333,-3.1942 c -42.4579,-14.5306 -87.441352,-20.32498 -105.457762,-13.58418 -8.14484,3.04737 -16.88466,10.05513 -19.96189,16.00585 -5.2502,10.15276 0.0215,18.74436 16.37304,26.68384 12.43962,6.04008 22.51208,7.37403 38.37335,5.08197 z m 18.36951,-101.93531 c -3.83373,-1.94688 -9.64144,-6.51062 -12.90602,-10.14162 -7.83231,-8.71141 -10.66418,-17.281 -10.52695,-31.8558 0.2107,-22.37726 8.93669,-38.6676 35.639362,-66.53428 17.75158,-18.52538 24.40508,-27.66181 29.96733,-41.1504 5.45921,-13.23872 7.22112,-22.058038 6.47895,-32.430768 -0.76779,-10.73093 0.72697,-10.8071 3.81221,-0.19426 4.60867,15.85327 -0.2888,43.197738 -10.95552,61.168828 -2.67444,4.50586 -9.93931,14.10586 -16.14415,21.33334 -27.744352,32.31697 -33.613172,43.44688 -33.695542,63.9018 -0.0434,10.76953 4.96704,20.93941 13.08738,26.56416 5.049732,3.49781 6.917492,4.00098 14.666672,3.95121 9.55669,-0.0613 15.41455,-2.29547 21.88003,-8.34463 4.92566,-4.6085 4.65914,-2.07664 -0.4315,4.0992 -6.41965,7.78815 -14.60079,11.90776 -25.00161,12.58958 -7.679762,0.50342 -9.856062,0.098 -15.870642,-2.95636 z m 99.324792,-3.36804 -4.35438,-4.03728 4.85167,2.2135 c 6.61828,3.01948 13.31673,1.60379 18.91901,-3.9985 7.44211,-7.44211 9.474,-13.20231 9.99691,-28.34016 0.79989,-23.15675 -6.59031,-43.04632 -28.73023,-77.32296 -30.33892,-46.97019 -41.39094,-74.585418 -40.05696,-100.088706 0.5406,-10.335247 1.32476,-13.751259 4.75538,-20.715662 3.81774,-7.750348 13.59756,-19.328379 13.59756,-16.097752 0,0.787396 -0.83424,2.123987 -1.85387,2.970203 -1.01963,0.846215 -3.24876,4.669681 -4.95361,8.496592 -4.35715,9.78049 -4.35838,28.540031 -0.003,40.958017 6.07001,17.30545 19.77555,41.416588 45.09557,79.333328 10.22059,15.30532 15.1976,25.23962 19.53183,38.98623 11.32855,35.92999 5.76991,64.69968 -15.05207,77.90457 -8.34138,5.28996 -15.85418,5.19963 -21.74413,-0.26142 z m -41.52963,-40.00278 c -12.81705,-11.2535 -11.51248,-43.51088 2.10249,-51.98702 5.84462,-3.63863 11.22118,-2.58482 16.67654,3.26862 8.72005,9.35635 10.62672,27.87247 4.264,41.40859 -5.45658,11.60837 -14.77906,14.56569 -23.04303,7.30981 z"
       id="path1404"
       inkscape:connector-curvature="0" />
    <path
       style="fill:#fad028;fill-opacity:1;stroke-width:1.1825062"
       d=""
       id="path1430"
       inkscape:connector-curvature="0"
       transform="translate(-2.0604711,-1.6890588)" />
    <path
       style="fill:#fad028;fill-opacity:1;stroke-width:1.1825062"
       d="M 43.841587,384.74299 C 32.579363,381.87942 22.260806,376.2815 14.825358,369.0014 5.2453854,359.62158 3.5709857,356.00524 3.7341294,345.04675 3.90002,333.90375 5.8785756,329.02029 13.165084,321.7693 c 12.792606,-12.73023 23.707569,-16.20404 48.23616,-15.35167 24.960657,0.86738 49.877496,6.84734 84.158476,20.19775 l 16.20704,6.31168 10.72341,-5.80775 c 18.6251,-10.08728 50.52311,-25.32316 61.57118,-29.40908 10.64015,-3.93506 10.64752,-3.93596 32.51892,-3.93186 21.1315,0.004 22.10499,0.11003 28.59086,3.11537 8.12787,3.76617 16.84516,11.555 20.19573,18.0447 3.52257,6.82282 4.2338,21.86773 1.43545,30.36423 -1.67714,5.09218 -3.98386,8.22932 -11.67047,15.87187 -11.48162,11.41583 -23.5942,18.17549 -39.30515,21.93504 -9.08572,2.17415 -12.76173,2.4211 -27.62657,1.85586 -10.60734,-0.40335 -20.97955,-1.538 -27.19764,-2.97524 -12.43579,-2.8744 -37.04768,-10.83226 -51.54442,-16.66606 l -10.89667,-4.38506 -4.55028,2.33913 c -12.80268,6.5814 -43.42231,17.88266 -55.398023,20.44661 -12.318826,2.6374 -36.261739,3.1819 -44.7715,1.01817 z M 257.71148,371.75265 c 16.81218,-3.51765 34.16828,-14.88136 42.91452,-28.09782 6.06499,-9.16482 3.54741,-21.09613 -5.82138,-27.58871 -11.59159,-8.03298 -33.30305,-8.41516 -55.13118,-0.97046 -8.57686,2.92523 -46.00931,20.88453 -51.4015,24.66137 -2.39876,1.68016 -2.38135,1.72745 0.97978,2.66263 6.67977,1.85851 33.6404,1.07279 41.26211,-1.20251 12.45294,-3.71757 12.06219,-3.65188 10.05131,-1.68983 -0.97557,0.95188 -5.49866,3.23726 -10.05131,5.07862 -7.83158,3.16755 -9.26502,3.3499 -26.60639,3.38458 -10.08086,0.0202 -20.72342,-0.20179 -23.65012,-0.49323 -4.56833,-0.45492 -6.5618,0.16057 -14.0883,4.34979 l -8.76702,4.87969 12.90579,4.14052 c 15.33103,4.9186 30.86067,8.85596 43.0597,10.91729 12.30073,2.07851 34.33322,2.06265 44.34399,-0.0319 z M 74.190628,368.21682 c 16.506437,-2.48803 52.066432,-14.87176 49.648232,-17.28995 -1.58043,-1.58043 -17.7551,-5.43361 -26.928837,-6.41506 -6.79709,-0.72719 -7.749418,-1.07169 -5.382716,-1.94719 3.765173,-1.39283 16.942763,-0.15863 29.980203,2.80792 l 10.4268,2.37252 10.00563,-4.45834 c 5.5031,-2.45209 9.59116,-4.86595 9.08456,-5.36412 -1.62884,-1.60176 -32.49266,-10.42994 -46.93117,-13.42402 -28.631431,-5.93724 -54.504615,-6.88274 -65.145505,-2.38065 -17.960049,7.59878 -25.48855,21.40195 -17.174387,31.48847 6.134436,7.44213 25.212129,15.49124 38.459499,16.22652 1.300757,0.0722 7.581718,-0.65505 13.957691,-1.6161 z"
       id="path1460"
       inkscape:connector-curvature="0"
       transform="translate(-2.0604711,-1.6890588)" />
    <path
       style="fill:#fad028;fill-opacity:1;stroke-width:1.1825062"
       d="m 195.03865,266.90263 c -3.25402,-1.79973 -7.68629,-5.91357 -7.68629,-7.13407 0,-0.55372 1.56995,-0.19489 3.48879,0.79737 8.21549,4.2484 17.44455,1.06392 23.95216,-8.26466 7.83377,-11.22961 7.48798,-37.28001 -0.7747,-58.36383 -4.11375,-10.49701 -11.60833,-24.23016 -23.97895,-43.93925 -30.06365,-47.89801 -39.04182,-71.137762 -37.92783,-98.175161 0.47555,-11.542103 0.90781,-13.564879 4.34649,-20.33962 4.08013,-8.038509 13.19164,-18.916984 13.9752,-16.68537 0.25984,0.740046 -0.88489,3.345675 -2.54385,5.790287 -6.48645,9.558319 -8.52457,27.934244 -4.72229,42.576619 3.77335,14.530917 17.84093,40.309065 42.68492,78.217995 13.82905,21.10147 20.52973,34.85198 24.67123,50.628 7.31827,27.87717 4.46835,50.40656 -8.25691,65.27317 -7.36684,8.6065 -20.60342,13.28243 -27.22797,9.61852 z"
       id="path1462"
       inkscape:connector-curvature="0"
       transform="translate(-2.0604711,-1.6890588)" />
    <path
       style="fill:#fad028;fill-opacity:1;stroke-width:1.1825062"
       d="m 152.16199,225.71876 c -7.39361,-4.50794 -11.21302,-14.02461 -11.15532,-27.79529 0.096,-22.92497 15.2869,-36.35411 27.07316,-23.93345 7.61535,8.02526 10.74933,19.83857 8.52824,32.1467 -3.20605,17.76633 -13.67285,26.15055 -24.44608,19.58204 z"
       id="path1464"
       inkscape:connector-curvature="0"
       transform="translate(-2.0604711,-1.6890588)" />
    <path
       style="fill:#fad028;fill-opacity:1;stroke-width:1.1825062"
       d="m 93.009536,268.07454 c -7.172722,-3.47782 -15.779157,-11.58779 -19.420382,-18.30012 -7.859525,-14.48846 -6.912368,-37.17114 2.312844,-55.38836 4.392095,-8.67316 13.751216,-20.71664 28.035472,-36.07655 20.7533,-22.31609 26.97365,-31.72052 33.14953,-50.11814 2.35067,-7.00253 2.96511,-11.19928 2.96511,-20.252388 0,-8.187222 0.39122,-11.289075 1.38218,-10.958756 5.46326,1.821087 6.8834,29.000424 2.36502,45.262844 -5.30629,19.09826 -8.86427,25.14256 -29.23547,49.66526 -23.896599,28.76656 -29.282718,39.26784 -29.415676,57.35156 -0.07671,10.43337 0.177264,11.69722 3.564416,17.73759 2.378613,4.24183 5.612398,7.84039 9.298063,10.34693 4.895057,3.32901 6.621897,3.8362 12.908077,3.79124 8.84436,-0.0633 14.41146,-1.93908 20.82118,-7.01567 8.99198,-7.12179 7.40099,-1.55812 -2.09426,7.32356 -9.64693,9.02358 -25.70668,11.93033 -36.636104,6.631 z"
       id="path1466"
       inkscape:connector-curvature="0"
       transform="translate(-2.0604711,-1.6890588)" />
  </g>
</svg>
